<svg xmlns="http://www.w3.org/2000/svg" xmlns:xlink="http://www.w3.org/1999/xlink" width="500" zoomAndPan="magnify" viewBox="0 0 375 374.999991" height="500" preserveAspectRatio="xMidYMid meet" version="1.0"><defs><g/></defs><g fill="#db4a2b" fill-opacity="1"><g transform="translate(96.351382, 185.254053)"><g><path d="M 10.171875 -21.21875 C 13.054688 -21.21875 15.253906 -20.078125 16.765625 -17.796875 L 17.4375 -20.734375 L 23.796875 -20.734375 L 23.796875 7.734375 L 15.984375 7.734375 L 15.984375 -1.890625 C 14.515625 -0.316406 12.578125 0.46875 10.171875 0.46875 C 7.367188 0.46875 5.207031 -0.4375 3.6875 -2.25 C 2.175781 -4.070312 1.421875 -6.765625 1.421875 -10.328125 C 1.421875 -13.921875 2.175781 -16.632812 3.6875 -18.46875 C 5.207031 -20.300781 7.367188 -21.21875 10.171875 -21.21875 Z M 12.609375 -15.4375 C 10.359375 -15.4375 9.234375 -14.101562 9.234375 -11.4375 L 9.234375 -9.34375 C 9.234375 -6.644531 10.359375 -5.296875 12.609375 -5.296875 C 13.765625 -5.296875 14.628906 -5.707031 15.203125 -6.53125 C 15.773438 -7.363281 16.0625 -8.429688 16.0625 -9.734375 L 16.0625 -11.03125 C 16.0625 -12.34375 15.773438 -13.40625 15.203125 -14.21875 C 14.628906 -15.03125 13.765625 -15.4375 12.609375 -15.4375 Z M 12.609375 -15.4375 "/></g></g></g><g fill="#db4a2b" fill-opacity="1"><g transform="translate(120.308351, 185.254053)"><g><path d="M 17.40625 0 L 16.890625 -3.140625 C 16.078125 -2.015625 15.007812 -1.128906 13.6875 -0.484375 C 12.363281 0.148438 10.96875 0.46875 9.5 0.46875 C 7.09375 0.46875 5.285156 -0.195312 4.078125 -1.53125 C 2.878906 -2.863281 2.28125 -4.789062 2.28125 -7.3125 L 2.28125 -20.734375 L 10.09375 -20.734375 L 10.09375 -8.25 C 10.09375 -7.351562 10.320312 -6.632812 10.78125 -6.09375 C 11.238281 -5.5625 11.890625 -5.296875 12.734375 -5.296875 C 13.703125 -5.296875 14.484375 -5.609375 15.078125 -6.234375 C 15.679688 -6.867188 15.984375 -7.644531 15.984375 -8.5625 L 15.984375 -20.734375 L 23.796875 -20.734375 L 23.796875 0 Z M 17.40625 0 "/></g></g></g><g fill="#db4a2b" fill-opacity="1"><g transform="translate(144.265321, 185.254053)"><g><path d="M 2.625 -23.171875 L 2.625 -28.484375 L 10.453125 -28.484375 L 10.453125 -23.171875 Z M 2.625 0 L 2.625 -20.734375 L 10.453125 -20.734375 L 10.453125 0 Z M 2.625 0 "/></g></g></g><g fill="#db4a2b" fill-opacity="1"><g transform="translate(155.104663, 185.254053)"><g><path d="M 13.078125 -21.21875 C 16.484375 -21.21875 19.238281 -20.488281 21.34375 -19.03125 C 23.457031 -17.582031 24.515625 -15.363281 24.515625 -12.375 L 16.9375 -12.375 C 16.9375 -14.726562 15.648438 -15.90625 13.078125 -15.90625 C 10.515625 -15.90625 9.234375 -14.425781 9.234375 -11.46875 L 9.234375 -9.234375 C 9.234375 -6.296875 10.566406 -4.828125 13.234375 -4.828125 C 15.910156 -4.828125 17.25 -6.035156 17.25 -8.453125 L 24.515625 -8.453125 C 24.515625 -5.429688 23.457031 -3.1875 21.34375 -1.71875 C 19.238281 -0.257812 16.484375 0.46875 13.078125 0.46875 C 9.441406 0.46875 6.585938 -0.445312 4.515625 -2.28125 C 2.453125 -4.113281 1.421875 -6.8125 1.421875 -10.375 C 1.421875 -13.9375 2.453125 -16.632812 4.515625 -18.46875 C 6.585938 -20.300781 9.441406 -21.21875 13.078125 -21.21875 Z M 13.078125 -21.21875 "/></g></g></g><g fill="#db4a2b" fill-opacity="1"><g transform="translate(179.061634, 185.254053)"><g><path d="M 16.8125 -20.734375 L 25.921875 -20.734375 L 18.265625 -12.375 L 26.125 0 L 17.25 0 L 12.890625 -7.109375 L 10.171875 -4.484375 L 10.171875 0 L 2.359375 0 L 2.359375 -28.515625 L 10.171875 -28.515625 L 10.171875 -12.8125 Z M 16.8125 -20.734375 "/></g></g></g><g fill="#db4a2b" fill-opacity="1"><g transform="translate(203.018606, 185.254053)"><g><path d="M 16.03125 -21.21875 C 18.832031 -21.21875 20.988281 -20.300781 22.5 -18.46875 C 24.019531 -16.632812 24.78125 -13.921875 24.78125 -10.328125 C 24.78125 -6.765625 24.019531 -4.070312 22.5 -2.25 C 20.988281 -0.4375 18.832031 0.46875 16.03125 0.46875 C 13.613281 0.46875 11.675781 -0.316406 10.21875 -1.890625 L 10.21875 7.734375 L 2.390625 7.734375 L 2.390625 -20.734375 L 8.765625 -20.734375 L 9.421875 -17.796875 C 10.941406 -20.078125 13.144531 -21.21875 16.03125 -21.21875 Z M 13.59375 -15.4375 C 12.4375 -15.4375 11.570312 -15.03125 11 -14.21875 C 10.425781 -13.40625 10.140625 -12.34375 10.140625 -11.03125 L 10.140625 -9.734375 C 10.140625 -8.429688 10.425781 -7.363281 11 -6.53125 C 11.570312 -5.707031 12.4375 -5.296875 13.59375 -5.296875 C 15.84375 -5.296875 16.96875 -6.644531 16.96875 -9.34375 L 16.96875 -11.4375 C 16.96875 -14.101562 15.84375 -15.4375 13.59375 -15.4375 Z M 13.59375 -15.4375 "/></g></g></g><g fill="#db4a2b" fill-opacity="1"><g transform="translate(226.975577, 185.254053)"><g><path d="M 13.078125 -21.21875 C 16.722656 -21.21875 19.582031 -20.289062 21.65625 -18.4375 C 23.738281 -16.59375 24.78125 -13.90625 24.78125 -10.375 C 24.78125 -6.832031 23.738281 -4.140625 21.65625 -2.296875 C 19.582031 -0.453125 16.722656 0.46875 13.078125 0.46875 C 9.441406 0.46875 6.585938 -0.445312 4.515625 -2.28125 C 2.453125 -4.113281 1.421875 -6.8125 1.421875 -10.375 C 1.421875 -13.9375 2.453125 -16.632812 4.515625 -18.46875 C 6.585938 -20.300781 9.441406 -21.21875 13.078125 -21.21875 Z M 13.078125 -15.90625 C 10.515625 -15.90625 9.234375 -14.425781 9.234375 -11.46875 L 9.234375 -9.234375 C 9.234375 -6.296875 10.515625 -4.828125 13.078125 -4.828125 C 15.671875 -4.828125 16.96875 -6.296875 16.96875 -9.234375 L 16.96875 -11.46875 C 16.96875 -14.425781 15.671875 -15.90625 13.078125 -15.90625 Z M 13.078125 -15.90625 "/></g></g></g><g fill="#db4a2b" fill-opacity="1"><g transform="translate(250.932549, 185.254053)"><g><path d="M 2.625 0 L 2.625 -28.484375 L 10.453125 -28.484375 L 10.453125 0 Z M 2.625 0 "/></g></g></g><g fill="#db4a2b" fill-opacity="1"><g transform="translate(261.771888, 185.254053)"><g><path d="M 2.625 0 L 2.625 -28.484375 L 10.453125 -28.484375 L 10.453125 0 Z M 2.625 0 "/></g></g></g><g fill="#db4a2b" fill-opacity="1"><g transform="translate(272.611226, 185.254053)"><g><path d="M 2.390625 0 L 2.390625 -7.8125 L 10.71875 -7.8125 L 10.71875 0 Z M 2.390625 0 "/></g></g></g></svg>